<svg xmlns="http://www.w3.org/2000/svg" viewBox="0 0 800 800" width="800" height="800" role="img" aria-labelledby="battery-3-front-title">
<title id="battery-3-front-title">Illustration of an iTarang battery — front view</title>

  <defs>
    <linearGradient id="bg" x1="0" y1="0" x2="0" y2="1">
      <stop offset="0" stop-color="#f3f6fb"/>
      <stop offset="1" stop-color="#e4eaf4"/>
    </linearGradient>
    <linearGradient id="body" x1="0" y1="0" x2="1" y2="1">
      <stop offset="0" stop-color="#17325c"/>
      <stop offset="1" stop-color="#0f2340"/>
    </linearGradient>
    <linearGradient id="bodySide" x1="0" y1="0" x2="1" y2="0">
      <stop offset="0" stop-color="#091729"/>
      <stop offset="1" stop-color="#0f2340"/>
    </linearGradient>
    <linearGradient id="amber" x1="0" y1="0" x2="1" y2="0">
      <stop offset="0" stop-color="#faa113"/>
      <stop offset="1" stop-color="#d1810a"/>
    </linearGradient>
    <radialGradient id="glow" cx="0.5" cy="0.5" r="0.5">
      <stop offset="0" stop-color="#faa113" stop-opacity="0.55"/>
      <stop offset="1" stop-color="#faa113" stop-opacity="0"/>
    </radialGradient>
    <filter id="soft" x="-20%" y="-20%" width="140%" height="140%">
      <feDropShadow dx="0" dy="14" stdDeviation="18" flood-color="#0f2340" flood-opacity="0.16"/>
    </filter>
  </defs>

  <rect width="800" height="800" fill="url(#bg)"/>
  <circle cx="400" cy="370" r="300" fill="url(#glow)" opacity="0.35"/>
  <ellipse cx="400" cy="678" rx="230" ry="26" fill="#0f2340" opacity="0.1"/>

  <g filter="url(#soft)">
    <rect x="200" y="230" width="400" height="360" rx="26" fill="url(#body)"/>
    <rect x="200" y="230" width="400" height="360" rx="26" fill="none" stroke="#2f4f88" stroke-width="2" opacity="0.5"/>
    <rect x="248" y="186" width="70" height="52" rx="12" fill="#091729"/>
    <rect x="482" y="186" width="70" height="52" rx="12" fill="#091729"/>
    <rect x="262" y="168" width="42" height="26" rx="8" fill="#c1483f"/>
    <rect x="496" y="168" width="42" height="26" rx="8" fill="#26364d"/>
    <rect x="236" y="278" width="200" height="18" rx="9" fill="#faa113"/>
    <rect x="236" y="312" width="260" height="12" rx="6" fill="#2f4f88" opacity="0.55"/>
    <rect x="236" y="338" width="150" height="12" rx="6" fill="#2f4f88" opacity="0.35"/>
    <rect x="236" y="400" width="328" height="5" rx="2.5" fill="#2f4f88" opacity="0.32"/><rect x="236" y="422" width="328" height="5" rx="2.5" fill="#2f4f88" opacity="0.32"/><rect x="236" y="444" width="328" height="5" rx="2.5" fill="#2f4f88" opacity="0.32"/><rect x="236" y="466" width="328" height="5" rx="2.5" fill="#2f4f88" opacity="0.32"/><rect x="236" y="488" width="328" height="5" rx="2.5" fill="#2f4f88" opacity="0.32"/><rect x="236" y="510" width="328" height="5" rx="2.5" fill="#2f4f88" opacity="0.32"/>
    <rect x="236" y="530" width="150" height="34" rx="10" fill="#091729" opacity="0.6"/>
    <text x="252" y="554" font-family="Sora, system-ui, sans-serif" font-size="18" font-weight="700" letter-spacing="1.5" fill="#e8eefb" opacity="0.85">iTarang</text>
    <rect x="420" y="530" width="144" height="34" rx="10" fill="url(#amber)" opacity="0.85"/>
  </g>
<text x="400" y="742" text-anchor="middle" font-family="Inter, system-ui, sans-serif" font-size="22" font-weight="500" letter-spacing="0.6" fill="#16294a" opacity="0.5">Front view</text>
</svg>