<svg xmlns="http://www.w3.org/2000/svg" viewBox="0 0 800 800" width="800" height="800" role="img" aria-labelledby="combo-2-angle-title">
<title id="combo-2-angle-title">Illustration of an iTarang inverter and battery combo — three-quarter view</title>

  <defs>
    <linearGradient id="bg" x1="0" y1="0" x2="0" y2="1">
      <stop offset="0" stop-color="#f3f6fb"/>
      <stop offset="1" stop-color="#e4eaf4"/>
    </linearGradient>
    <linearGradient id="body" x1="0" y1="0" x2="1" y2="1">
      <stop offset="0" stop-color="#f4f7fb"/>
      <stop offset="1" stop-color="#e6ebf4"/>
    </linearGradient>
    <linearGradient id="bodySide" x1="0" y1="0" x2="1" y2="0">
      <stop offset="0" stop-color="#cdd7e6"/>
      <stop offset="1" stop-color="#e6ebf4"/>
    </linearGradient>
    <linearGradient id="amber" x1="0" y1="0" x2="1" y2="0">
      <stop offset="0" stop-color="#faa113"/>
      <stop offset="1" stop-color="#d1810a"/>
    </linearGradient>
    <radialGradient id="glow" cx="0.5" cy="0.5" r="0.5">
      <stop offset="0" stop-color="#faa113" stop-opacity="0.55"/>
      <stop offset="1" stop-color="#faa113" stop-opacity="0"/>
    </radialGradient>
    <filter id="soft" x="-20%" y="-20%" width="140%" height="140%">
      <feDropShadow dx="0" dy="14" stdDeviation="18" flood-color="#0f2340" flood-opacity="0.16"/>
    </filter>
  </defs>

  <rect width="800" height="800" fill="url(#bg)"/>
  <circle cx="400" cy="370" r="300" fill="url(#glow)" opacity="0.35"/>
  <ellipse cx="400" cy="678" rx="230" ry="26" fill="#0f2340" opacity="0.1"/>

  <g filter="url(#soft)">
    <path d="M170 230 L360 200 L440 236 L440 500 L360 534 L170 506 Z" fill="url(#bodySide)"/>
    <path d="M170 230 L360 200 L360 520 L170 506 Z" fill="url(#body)"/>
    <rect x="200" y="266" width="128" height="72" rx="12" fill="#cdd7e6" opacity="0.75"/>
    <rect x="218" y="288" width="62" height="12" rx="6" fill="#faa113"/>
    <rect x="204" y="380" width="122" height="5" rx="2.5" fill="#8ea3c4" opacity="0.32"/><rect x="204" y="400" width="122" height="5" rx="2.5" fill="#8ea3c4" opacity="0.32"/><rect x="204" y="420" width="122" height="5" rx="2.5" fill="#8ea3c4" opacity="0.32"/><rect x="204" y="440" width="122" height="5" rx="2.5" fill="#8ea3c4" opacity="0.32"/>

    <path d="M440 320 L620 292 L700 328 L700 572 L620 604 L440 578 Z" fill="url(#bodySide)"/>
    <path d="M440 320 L620 292 L620 590 L440 578 Z" fill="url(#body)"/>
    <rect x="468" y="270" width="48" height="36" rx="9" fill="#cdd7e6"/>
    <rect x="560" y="256" width="48" height="36" rx="9" fill="#cdd7e6"/>
    <rect x="468" y="358" width="112" height="13" rx="6.5" fill="#faa113"/>
    <rect x="468" y="408" width="122" height="5" rx="2.5" fill="#8ea3c4" opacity="0.32"/><rect x="468" y="430" width="122" height="5" rx="2.5" fill="#8ea3c4" opacity="0.32"/><rect x="468" y="452" width="122" height="5" rx="2.5" fill="#8ea3c4" opacity="0.32"/><rect x="468" y="474" width="122" height="5" rx="2.5" fill="#8ea3c4" opacity="0.32"/>
    <path d="M362 400 C 396 400 400 436 438 436" stroke="#faa113" stroke-width="7" fill="none" stroke-linecap="round"/>
  </g>
<text x="400" y="742" text-anchor="middle" font-family="Inter, system-ui, sans-serif" font-size="22" font-weight="500" letter-spacing="0.6" fill="#16294a" opacity="0.5">Three-quarter view</text>
</svg>