<svg xmlns="http://www.w3.org/2000/svg" viewBox="0 0 800 800" width="800" height="800" role="img" aria-labelledby="inverter-1-box-title">
<title id="inverter-1-box-title">Illustration of an iTarang inverter — what arrives</title>

  <defs>
    <linearGradient id="bg" x1="0" y1="0" x2="0" y2="1">
      <stop offset="0" stop-color="#f3f6fb"/>
      <stop offset="1" stop-color="#e4eaf4"/>
    </linearGradient>
    <linearGradient id="body" x1="0" y1="0" x2="1" y2="1">
      <stop offset="0" stop-color="#1d3868"/>
      <stop offset="1" stop-color="#152a4d"/>
    </linearGradient>
    <linearGradient id="bodySide" x1="0" y1="0" x2="1" y2="0">
      <stop offset="0" stop-color="#0d1c35"/>
      <stop offset="1" stop-color="#152a4d"/>
    </linearGradient>
    <linearGradient id="amber" x1="0" y1="0" x2="1" y2="0">
      <stop offset="0" stop-color="#faa113"/>
      <stop offset="1" stop-color="#d1810a"/>
    </linearGradient>
    <radialGradient id="glow" cx="0.5" cy="0.5" r="0.5">
      <stop offset="0" stop-color="#faa113" stop-opacity="0.55"/>
      <stop offset="1" stop-color="#faa113" stop-opacity="0"/>
    </radialGradient>
    <filter id="soft" x="-20%" y="-20%" width="140%" height="140%">
      <feDropShadow dx="0" dy="14" stdDeviation="18" flood-color="#0f2340" flood-opacity="0.16"/>
    </filter>
  </defs>

  <rect width="800" height="800" fill="url(#bg)"/>
  <circle cx="400" cy="370" r="300" fill="url(#glow)" opacity="0.35"/>
  <ellipse cx="400" cy="678" rx="230" ry="26" fill="#0f2340" opacity="0.1"/>

  <g filter="url(#soft)">
    <path d="M230 250 L400 190 L570 250 L570 570 L400 630 L230 570 Z" fill="#152a4d"/>
    <path d="M230 250 L400 310 L400 630 L230 570 Z" fill="#0d1c35"/>
    <path d="M400 310 L570 250 L570 570 L400 630 Z" fill="#1d3868" opacity="0.92"/>
    <path d="M230 250 L400 190 L570 250 L400 310 Z" fill="#3b5c99" opacity="0.55"/>
    <rect x="264" y="368" width="104" height="14" rx="7" fill="#faa113" opacity="0.9"/>
    <rect x="264" y="400" width="80" height="10" rx="5" fill="#e8eefb" opacity="0.4"/>
    <text x="440" y="416" font-family="Sora, system-ui, sans-serif" font-size="24" font-weight="700" fill="#e8eefb" opacity="0.75">INVERTER</text>
    <rect x="440" y="440" width="96" height="8" rx="4" fill="#e8eefb" opacity="0.3"/>
    <path d="M400 310 L400 630" stroke="#3b5c99" stroke-width="2" opacity="0.4"/>
  </g>
<text x="400" y="742" text-anchor="middle" font-family="Inter, system-ui, sans-serif" font-size="22" font-weight="500" letter-spacing="0.6" fill="#16294a" opacity="0.5">What arrives</text>
</svg>